<svg id="Layer_1" data-name="Layer 1" xmlns="http://www.w3.org/2000/svg" width="128" height="128" viewBox="0 0 128 128"><defs><style>.cls-1{fill:#fff;}</style></defs><title>Artboard 3</title><path d="M56,0H72a10.69,10.69,0,0,0,2.21.9C94.6,4.46,110.13,15.19,119.9,33.33c3.76,7,5.46,15.08,8.1,22.67V72a10.24,10.24,0,0,0-.9,2.22,62.56,62.56,0,0,1-21.53,38.34A56.74,56.74,0,0,1,81.15,125.4V78.3h16.1c.84-6.5,1.63-12.56,2.5-19.24h-19c0-4.53-.08-8.49,0-12.45.17-6.69,2.24-8.84,9.06-9.24,3.4-.2,6.83,0,10.57,0V20.08c-4.61-.27-8.41-.56-12.22-.71-17.45-.7-27.16,8.53-27.38,26-.06,4.44,0,8.87,0,13.81H44.31V78.57H61V128H56a10.69,10.69,0,0,0-2.21-.9C33.41,123.54,17.87,112.81,8.1,94.67,4.34,87.68,2.64,79.59,0,72V56a11.53,11.53,0,0,0,.9-2.21C5.58,28.85,20,12.13,43.69,3.37,47.66,1.9,51.89,1.11,56,0Z"/><path class="cls-1" d="M61,128V78.57H44.31V59.22H60.78c0-4.94-.05-9.37,0-13.81.22-17.51,9.93-26.74,27.38-26,3.81.15,7.61.44,12.22.71V37.34c-3.74,0-7.17-.17-10.57,0-6.82.4-8.89,2.55-9.06,9.24-.1,4,0,7.92,0,12.45h19c-.87,6.68-1.66,12.74-2.5,19.24H81.15v47.1a56.74,56.74,0,0,0,24.42-12.84A62.56,62.56,0,0,0,127.1,74.22,10.24,10.24,0,0,1,128,72v56Z"/><path class="cls-1" d="M56,0c-4.11,1.11-8.34,1.9-12.31,3.37C20,12.13,5.58,28.85.9,53.79A11.53,11.53,0,0,1,0,56V0Z"/><path class="cls-1" d="M128,56c-2.64-7.59-4.34-15.68-8.1-22.67C110.13,15.19,94.6,4.46,74.21.9A10.69,10.69,0,0,1,72,0h56Z"/><path class="cls-1" d="M0,72c2.64,7.59,4.34,15.68,8.1,22.67,9.77,18.14,25.31,28.87,45.69,32.43A10.69,10.69,0,0,1,56,128H0Z"/></svg>
