<svg id="Layer_1" data-name="Layer 1" xmlns="http://www.w3.org/2000/svg" width="128" height="128" viewBox="0 0 128 128"><defs><style>.cls-1{fill:#fff;}</style></defs><title>Artboard 2</title><path d="M56,0H72a10.69,10.69,0,0,0,2.21.9C94.6,4.46,110.13,15.19,119.9,33.33c3.76,7,5.46,15.08,8.1,22.67V72a11.28,11.28,0,0,0-.9,2.21c-4.69,24.94-19.1,41.65-42.79,50.41-4,1.47-8.2,2.27-12.31,3.38H56a10.69,10.69,0,0,0-2.21-.9C33.41,123.54,17.87,112.81,8.1,94.67,4.34,87.68,2.64,79.59,0,72V56a11.53,11.53,0,0,0,.9-2.21C5.58,28.85,20,12.13,43.69,3.37,47.66,1.9,51.89,1.11,56,0ZM20,63.67c.31,7.19.38,14.52,1,21.81,1,11.88,9.41,20.84,21.23,21.4,14.43.68,28.94.67,43.38,0a21.85,21.85,0,0,0,21.29-21.24c.67-14.44.67-28.95,0-43.38A21.86,21.86,0,0,0,85.54,21.09c-14.27-.65-28.62-.64-42.89,0-12.11.53-20.6,9.43-21.67,21.51C20.36,49.54,20.29,56.55,20,63.67Z"/><path class="cls-1" d="M56,0c-4.11,1.11-8.34,1.9-12.31,3.37C20,12.13,5.58,28.85.9,53.79A11.53,11.53,0,0,1,0,56V0Z"/><path class="cls-1" d="M128,56c-2.64-7.59-4.34-15.68-8.1-22.67C110.13,15.19,94.6,4.46,74.21.9A10.69,10.69,0,0,1,72,0h56Z"/><path class="cls-1" d="M0,72c2.64,7.59,4.34,15.68,8.1,22.67,9.77,18.14,25.31,28.87,45.69,32.43A10.69,10.69,0,0,1,56,128H0Z"/><path class="cls-1" d="M72,128c4.11-1.11,8.33-1.91,12.31-3.38,23.69-8.76,38.1-25.47,42.79-50.41A11.28,11.28,0,0,1,128,72v56Z"/><path class="cls-1" d="M20,63.67c.32-7.12.39-14.13,1-21.08,1.07-12.08,9.56-21,21.67-21.51,14.27-.63,28.62-.64,42.89,0a21.86,21.86,0,0,1,21.35,21.19c.67,14.43.67,28.94,0,43.38A21.85,21.85,0,0,1,85.6,106.9c-14.44.65-28.95.66-43.38,0C30.4,106.32,22,97.36,21,85.48,20.35,78.19,20.28,70.86,20,63.67Zm80.19.92c-.33-7-.37-13.88-1-20.65-.94-9.66-5.54-14.67-15.32-15.1-13.27-.58-26.6-.52-39.87.11-9.68.45-14.67,5.45-15.1,15.24-.58,13.27-.52,26.6.11,39.87.45,9.68,5.46,14.69,15.24,15.09,13.6.56,27.26.37,40.86-.19,8.14-.34,13.11-5.54,14-13.67C99.79,78.36,99.82,71.35,100.16,64.59Z"/><path d="M100.16,64.59c-.34,6.76-.37,13.77-1.12,20.7-.88,8.13-5.85,13.33-14,13.67-13.6.56-27.26.75-40.86.19C34.41,98.75,29.4,93.74,29,84.06c-.63-13.27-.69-26.6-.11-39.87C29.27,34.4,34.26,29.4,43.94,29c13.27-.63,26.6-.69,39.87-.11,9.78.43,14.38,5.44,15.32,15.1C99.79,50.71,99.83,57.55,100.16,64.59Zm-13.83-.78A22.34,22.34,0,1,0,63.94,86.33,22.3,22.3,0,0,0,86.33,63.81Zm2-29-2.25.06c-1.31,1.94-3.49,3.79-3.72,5.86a4.28,4.28,0,0,0,5.28,4.9c1.9-.48,4.3-3.26,4.46-5.18C92.22,38.67,89.67,36.68,88.3,34.79Z"/><path class="cls-1" d="M86.33,63.81A22.34,22.34,0,1,1,64.06,41.66,22.29,22.29,0,0,1,86.33,63.81ZM64,49.52A14.48,14.48,0,1,0,78.48,64.11,14.44,14.44,0,0,0,64,49.52Z"/><path class="cls-1" d="M88.3,34.79c1.37,1.89,3.92,3.88,3.77,5.64-.16,1.92-2.56,4.7-4.46,5.18a4.28,4.28,0,0,1-5.28-4.9c.23-2.07,2.41-3.92,3.72-5.86Z"/><path d="M64,49.52A14.48,14.48,0,1,1,49.52,64.14,14.44,14.44,0,0,1,64,49.52Z"/></svg>
