<svg id="Layer_1" data-name="Layer 1" xmlns="http://www.w3.org/2000/svg" width="128" height="128" viewBox="0 0 128 128"><defs><style>.cls-1{fill:#fff;}</style></defs><title>Artboard 4</title><path d="M56,0H72a10.69,10.69,0,0,0,2.21.9C94.6,4.46,110.13,15.19,119.9,33.33c3.76,7,5.46,15.08,8.1,22.67V72a11.28,11.28,0,0,0-.9,2.21c-4.69,24.94-19.1,41.65-42.79,50.41-4,1.47-8.2,2.27-12.31,3.38H56a10.69,10.69,0,0,0-2.21-.9C33.41,123.54,17.87,112.81,8.1,94.67,4.34,87.68,2.64,79.59,0,72V56a11.53,11.53,0,0,0,.9-2.21C5.58,28.85,20,12.13,43.69,3.37,47.66,1.9,51.89,1.11,56,0ZM51.49,49.94v53.89H68.18c0-2.73-.05-5,0-7.36.21-8.47.09-17,.84-25.4.48-5.38,4.64-8.16,9.79-7.87,4.9.27,7.8,3.26,8.17,8.94.3,4.65.22,9.32.24,14,0,5.92,0,11.84,0,17.79h17c0-9.93,0-19.54,0-29.16a63.45,63.45,0,0,0-.57-10c-2.56-15.28-19.48-22-31.52-12.69-1.33,1-2.57,2.2-4.23,3.63-.22-2.3-.38-3.91-.56-5.8ZM40.34,104V50.08H23.94V104Zm1.6-71.58a10,10,0,0,0-9.72-10,10,10,0,0,0-10,9.71,9.87,9.87,0,0,0,19.73.29Z"/><path class="cls-1" d="M56,0c-4.11,1.11-8.34,1.9-12.31,3.37C20,12.13,5.58,28.85.9,53.79A11.53,11.53,0,0,1,0,56V0Z"/><path class="cls-1" d="M128,56c-2.64-7.59-4.34-15.68-8.1-22.67C110.13,15.19,94.6,4.46,74.21.9A10.69,10.69,0,0,1,72,0h56Z"/><path class="cls-1" d="M0,72c2.64,7.59,4.34,15.68,8.1,22.67,9.77,18.14,25.31,28.87,45.69,32.43A10.69,10.69,0,0,1,56,128H0Z"/><path class="cls-1" d="M72,128c4.11-1.11,8.33-1.91,12.31-3.38,23.69-8.76,38.1-25.47,42.79-50.41A11.28,11.28,0,0,1,128,72v56Z"/><path class="cls-1" d="M51.49,49.94H67.34c.18,1.89.34,3.5.56,5.8,1.66-1.43,2.9-2.59,4.23-3.63,12-9.35,29-2.59,31.52,12.69a63.45,63.45,0,0,1,.57,10c.06,9.62,0,19.23,0,29.16h-17c0-6,0-11.87,0-17.79,0-4.66.06-9.33-.24-14-.37-5.68-3.27-8.67-8.17-8.94-5.15-.29-9.31,2.49-9.79,7.87-.75,8.43-.63,16.93-.84,25.4-.06,2.32,0,4.63,0,7.36H51.49Z"/><path class="cls-1" d="M40.34,104H23.94V50.08h16.4Z"/><path class="cls-1" d="M41.94,32.38a9.87,9.87,0,0,1-19.73-.29,10,10,0,0,1,10-9.71A10,10,0,0,1,41.94,32.38Z"/></svg>
